<?xml version="1.0" encoding="utf-8"?>
<!-- Generator: Adobe Illustrator 18.1.1, SVG Export Plug-In . SVG Version: 6.00 Build 0)  -->
<svg version="1.1" id="Layer_1" xmlns="http://www.w3.org/2000/svg" xmlns:xlink="http://www.w3.org/1999/xlink" x="0px" y="0px"
	 viewBox="0 0 845.6 397.9" enable-background="new 0 0 845.6 397.9" xml:space="preserve">
<path fill="#EDEDED" stroke="#333333" stroke-width="6" stroke-miterlimit="10" d="M234.4,368.9H95.9c-27.2,0-49.3-22.1-49.3-49.3
	V167.3c0-27.2,22.1-49.3,49.3-49.3h138.5c27.2,0,49.3,22.1,49.3,49.3v152.4C283.6,346.9,261.6,368.9,234.4,368.9z"/>
<g>
	<g>
		<defs>
			<rect id="SVGID_1_" x="72.2" y="150.1" width="56.6" height="56.4"/>
		</defs>
		<clipPath id="SVGID_2_">
			<use xlink:href="#SVGID_1_"  overflow="visible"/>
		</clipPath>
		<g clip-path="url(#SVGID_2_)">
			<path d="M128.3,150.1H72.2v56.2h56.2V150.1z M117.1,195H83.4v-33.7h33.7V195z"/>
		</g>
	</g>
	<path d="M94.6,172.6h11.2v11.2H94.6V172.6z"/>
	<g>
		<defs>
			<rect id="SVGID_3_" x="206.6" y="150.1" width="56.6" height="56.4"/>
		</defs>
		<clipPath id="SVGID_4_">
			<use xlink:href="#SVGID_3_"  overflow="visible"/>
		</clipPath>
		<g clip-path="url(#SVGID_4_)">
			<path d="M207,206.3h56.2v-56.2H207V206.3z M218.2,161.3H252V195h-33.7V161.3z"/>
		</g>
	</g>
	<path d="M229.5,172.6h11.2v11.2h-11.2V172.6z"/>
	<g>
		<defs>
			<rect id="SVGID_5_" x="206.6" y="284.9" width="56.6" height="56.2"/>
		</defs>
		<clipPath id="SVGID_6_">
			<use xlink:href="#SVGID_5_"  overflow="visible"/>
		</clipPath>
		<g clip-path="url(#SVGID_6_)">
			<path d="M207,341.1h56.2v-56.2H207V341.1z M218.2,296.2H252v33.7h-33.7V296.2z"/>
		</g>
	</g>
	<path d="M229.5,307.4h11.2v11.2h-11.2V307.4z"/>
	<g>
		<defs>
			<rect id="SVGID_7_" x="184.2" y="307.3" width="11.8" height="33.8"/>
		</defs>
		<clipPath id="SVGID_8_">
			<use xlink:href="#SVGID_7_"  overflow="visible"/>
		</clipPath>
		<g clip-path="url(#SVGID_8_)">
			<path d="M184.5,307.4h11.2v33.7h-11.2V307.4z"/>
		</g>
	</g>
	<path d="M184.5,284.9h11.2v11.2h-11.2V284.9z"/>
	<g>
		<defs>
			<rect id="SVGID_9_" x="72.2" y="329.7" width="11.8" height="11.4"/>
		</defs>
		<clipPath id="SVGID_10_">
			<use xlink:href="#SVGID_9_"  overflow="visible"/>
		</clipPath>
		<g clip-path="url(#SVGID_10_)">
			<path d="M72.2,329.9h11.2v11.2H72.2V329.9z"/>
		</g>
	</g>
	<g>
		<defs>
			<rect id="SVGID_11_" x="72.2" y="239.5" width="11.8" height="73.7"/>
		</defs>
		<clipPath id="SVGID_12_">
			<use xlink:href="#SVGID_11_"  overflow="visible"/>
		</clipPath>
		<g clip-path="url(#SVGID_12_)">
			<path d="M72.2,240h11.2v73H72.2V240z"/>
		</g>
	</g>
	<g>
		<defs>
			<rect id="SVGID_13_" x="72.2" y="217.1" width="56.6" height="11.8"/>
		</defs>
		<clipPath id="SVGID_14_">
			<use xlink:href="#SVGID_13_"  overflow="visible"/>
		</clipPath>
		<g clip-path="url(#SVGID_14_)">
			<path d="M72.2,217.5h56.2v11.2H72.2V217.5z"/>
		</g>
	</g>
	<path d="M139.6,217.5h11.2v11.2h-11.2V217.5z"/>
	<g>
		<defs>
			<rect id="SVGID_15_" x="139.4" y="150.1" width="11.8" height="56.4"/>
		</defs>
		<clipPath id="SVGID_16_">
			<use xlink:href="#SVGID_15_"  overflow="visible"/>
		</clipPath>
		<g clip-path="url(#SVGID_16_)">
			<path d="M139.6,150.1h11.2v56.2h-11.2V150.1z"/>
		</g>
	</g>
	<g>
		<defs>
			<rect id="SVGID_17_" x="94.5" y="239.5" width="56.6" height="101.6"/>
		</defs>
		<clipPath id="SVGID_18_">
			<use xlink:href="#SVGID_17_"  overflow="visible"/>
		</clipPath>
		<g clip-path="url(#SVGID_18_)">
			<path d="M150.8,341.1V240H94.6v101.1h11.2v-89.9h33.7v89.9H150.8z"/>
		</g>
	</g>
	<path d="M117.1,262.5h11.2v11.2h-11.2V262.5z"/>
	<g>
		<defs>
			<rect id="SVGID_19_" x="117" y="284.9" width="11.8" height="56.2"/>
		</defs>
		<clipPath id="SVGID_20_">
			<use xlink:href="#SVGID_19_"  overflow="visible"/>
		</clipPath>
		<g clip-path="url(#SVGID_20_)">
			<path d="M117.1,284.9h11.2v56.2h-11.2V284.9z"/>
		</g>
	</g>
	<g>
		<defs>
			<rect id="SVGID_21_" x="161.8" y="329.7" width="11.8" height="11.4"/>
		</defs>
		<clipPath id="SVGID_22_">
			<use xlink:href="#SVGID_21_"  overflow="visible"/>
		</clipPath>
		<g clip-path="url(#SVGID_22_)">
			<path d="M162.1,329.9h11.2v11.2h-11.2V329.9z"/>
		</g>
	</g>
	<path d="M162.1,284.9h11.2v33.7h-11.2V284.9z"/>
	<g>
		<defs>
			<rect id="SVGID_23_" x="184.2" y="150.1" width="79" height="124.2"/>
		</defs>
		<clipPath id="SVGID_24_">
			<use xlink:href="#SVGID_23_"  overflow="visible"/>
		</clipPath>
		<g clip-path="url(#SVGID_24_)">
			<path d="M218.2,217.5h-22.5v-67.4h-11.2v78.7H207v44.9h56.2v-11.2h-44.9V217.5z"/>
		</g>
	</g>
	<path d="M162.1,240h11.2v11.2h-11.2V240z"/>
	<path d="M195.8,240h-11.2v22.5h-22.5v11.2h33.7V240z"/>
	<path d="M229.5,217.5h11.2v11.2h-11.2V217.5z"/>
	<path d="M229.5,240h11.2v11.2h-11.2V240z"/>
	<g>
		<defs>
			<rect id="SVGID_25_" x="251.4" y="217.1" width="11.8" height="34.2"/>
		</defs>
		<clipPath id="SVGID_26_">
			<use xlink:href="#SVGID_25_"  overflow="visible"/>
		</clipPath>
		<g clip-path="url(#SVGID_26_)">
			<path d="M252,217.5h11.2v33.7H252V217.5z"/>
		</g>
	</g>
	<path d="M162.1,172.6h11.2v56.2h-11.2V172.6z"/>
	<g>
		<defs>
			<rect id="SVGID_27_" x="161.8" y="150.1" width="11.8" height="11.6"/>
		</defs>
		<clipPath id="SVGID_28_">
			<use xlink:href="#SVGID_27_"  overflow="visible"/>
		</clipPath>
		<g clip-path="url(#SVGID_28_)">
			<path d="M162.1,150.1h11.2v11.2h-11.2V150.1z"/>
		</g>
	</g>
</g>
<path d="M222.6,91c2-2.9,4.2-4.7,4.1-6.3c-0.2-1.6-2.7-4.1-4.1-4.1c-1.5,0.1-4.1,2.5-4.2,4.1C218.2,86.3,220.5,88.1,222.6,91z"/>
<path fill="#FFFFFF" d="M222.6,91c-2.1-2.9-4.4-4.7-4.3-6.3c0.1-1.6,2.7-4,4.2-4.1c1.4,0,4,2.5,4.1,4.1
	C226.8,86.2,224.6,88.1,222.6,91z"/>
<path d="M192,91.3c7.2,5.4,10.5,12.9,8.4,18.9C195.3,104.8,194,98.4,192,91.3z"/>
<rect x="65.3" y="159.2" fill="#EDEDED" width="201.1" height="80.8"/>
<g>
	<linearGradient id="SVGID_29_" gradientUnits="userSpaceOnUse" x1="251.9096" y1="227.1052" x2="99.2359" y2="181.1963">
		<stop  offset="0" style="stop-color:#DBDBDB"/>
		<stop  offset="0.7116" style="stop-color:#000000"/>
	</linearGradient>
	<path fill="url(#SVGID_29_)" d="M92.1,231.7c-17.1,0-31.1-13.9-31.1-31.1c0-17.1,13.9-31.1,31.1-31.1h143.8
		c17.1,0,31.1,13.9,31.1,31.1c0,17.1-13.9,31.1-31.1,31.1H92.1z"/>
	<path fill="#CCCCCC" d="M235.9,170.1c16.9,0,30.6,13.7,30.6,30.6v0c0,16.9-13.7,30.6-30.6,30.6H92.1c-16.9,0-30.6-13.7-30.6-30.6v0
		c0-16.9,13.7-30.6,30.6-30.6H235.9 M235.9,169.1H92.1c-17.4,0-31.6,14.2-31.6,31.6c0,17.4,14.2,31.6,31.6,31.6h143.8
		c17.4,0,31.6-14.2,31.6-31.6C267.5,183.3,253.3,169.1,235.9,169.1L235.9,169.1z"/>
</g>
<g>
	<path fill="#EAEAEA" d="M235.9,171.1c16.3,0,29.6,13.3,29.6,29.6c0,16.3-13.3,29.6-29.6,29.6H92.1c-16.3,0-29.6-13.3-29.6-29.6
		c0-16.3,13.3-29.6,29.6-29.6H235.9 M235.9,170.1H92.1c-16.9,0-30.6,13.7-30.6,30.6v0c0,16.9,13.7,30.6,30.6,30.6h143.8
		c16.9,0,30.6-13.7,30.6-30.6v0C266.5,183.8,252.8,170.1,235.9,170.1L235.9,170.1z"/>
</g>
<linearGradient id="SVGID_30_" gradientUnits="userSpaceOnUse" x1="23.2623" y1="96.1608" x2="324.2422" y2="187.1547">
	<stop  offset="0" style="stop-color:#661200"/>
	<stop  offset="0.2148" style="stop-color:#E04603"/>
</linearGradient>
<path fill="url(#SVGID_30_)" d="M225.7,146.6c-65.8,2.7-125.9,24.3-174.2,74.1c-5.2,5.4-9.8,4.6-12.4-2.5
	c-11.8-32.5-15.7-65.9-7-99.7c8.5-32.9,29.7-56.2,60-70.9C115.6,36.1,140.6,29,166.8,27c24-1.8,46.9,2.2,67.7,14.9
	c22.4,13.7,35.5,33.7,39,59.8c0.7,4.8,2.8,6.3,7.4,6.7c18.1,1.2,36.2,2.4,54.2,4.3c5.6,0.6,11.2,3.2,16.4,5.6
	c6.1,2.9,7.8,7.8,4.4,13.7c-2.7,4.7-6.3,9-10.3,12.7c-16.5,14.8-35.8,25.5-55.1,35.9c-5.3,3.3-3.5-1.9-4.1-7.2
	c-1.2-17.4-13.4-21.1-19.9-23.2C252.7,145.6,242.3,146.9,225.7,146.6z"/>
<g>
	<path fill="#727272" d="M667,351h5.8c1.1,0,2.2,0.2,3.2,0.5c1,0.3,1.8,0.8,2.4,1.5c0.6,0.7,0.9,1.7,0.9,3c0,0.9-0.2,1.7-0.5,2.4
		s-0.8,1.3-1.3,1.7c-0.5,0.4-1,0.7-1.5,0.8c0.4,0,0.8,0.2,1.3,0.4c0.5,0.2,1,0.5,1.4,0.9c0.4,0.4,0.8,0.9,1.1,1.5
		c0.3,0.6,0.4,1.3,0.4,2.2c0,1.1-0.2,2.1-0.7,3s-1.2,1.6-2.1,2.1c-0.9,0.5-2.1,0.7-3.6,0.7H667V351z M669.7,360h3.5
		c0.8,0,1.5-0.2,2-0.5c0.5-0.4,0.9-0.8,1.1-1.4c0.3-0.6,0.4-1.1,0.4-1.7c0-1.2-0.4-2-1.1-2.5c-0.7-0.5-1.7-0.7-2.8-0.7h-3.1V360z
		 M669.7,369.5h4c1,0,1.8-0.2,2.3-0.5c0.5-0.4,0.9-0.8,1.2-1.4c0.2-0.6,0.3-1.2,0.3-1.8c0-1.1-0.3-1.9-1-2.6c-0.7-0.6-1.7-1-3-1
		h-3.8V369.5z"/>
	<path fill="#727272" d="M681.9,351h2.7v18.3h8.2v2.4h-10.8V351z"/>
	<path fill="#727272" d="M706.7,351h2.7v12.9c0,1.7-0.3,3.2-1,4.4c-0.7,1.2-1.6,2.2-2.8,2.8s-2.5,1-4.1,1c-1.5,0-2.9-0.3-4.1-1
		c-1.2-0.7-2.1-1.6-2.8-2.8c-0.7-1.2-1-2.7-1-4.4V351h2.7v12.7c0,1.2,0.2,2.2,0.7,3.1c0.5,0.9,1.1,1.6,1.9,2s1.7,0.7,2.7,0.7
		c1,0,1.9-0.2,2.7-0.7c0.8-0.5,1.4-1.2,1.9-2c0.5-0.9,0.7-1.9,0.7-3.1V351z"/>
	<path fill="#727272" d="M711.4,351h12.3v2.4H714v6.7h9.4v2.4H714v6.8h9.6v2.4h-12.3V351z"/>
	<path fill="#727272" d="M732,351h5.8c1.1,0,2.2,0.2,3.2,0.5c1,0.3,1.8,0.8,2.4,1.5c0.6,0.7,0.9,1.7,0.9,3c0,0.9-0.2,1.7-0.5,2.4
		s-0.8,1.3-1.3,1.7c-0.5,0.4-1,0.7-1.5,0.8c0.4,0,0.8,0.2,1.3,0.4c0.5,0.2,1,0.5,1.4,0.9c0.4,0.4,0.8,0.9,1.1,1.5
		c0.3,0.6,0.4,1.3,0.4,2.2c0,1.1-0.2,2.1-0.7,3s-1.2,1.6-2.1,2.1c-0.9,0.5-2.1,0.7-3.6,0.7H732V351z M734.6,360h3.5
		c0.8,0,1.5-0.2,2-0.5c0.5-0.4,0.9-0.8,1.1-1.4c0.3-0.6,0.4-1.1,0.4-1.7c0-1.2-0.4-2-1.1-2.5c-0.7-0.5-1.7-0.7-2.8-0.7h-3.1V360z
		 M734.6,369.5h4c1,0,1.8-0.2,2.3-0.5c0.5-0.4,0.9-0.8,1.2-1.4c0.2-0.6,0.3-1.2,0.3-1.8c0-1.1-0.3-1.9-1-2.6c-0.7-0.6-1.7-1-3-1
		h-3.8V369.5z"/>
	<path fill="#727272" d="M746.8,351h7.2c1.1,0,2.1,0.2,3.1,0.7c0.9,0.5,1.7,1.1,2.2,2c0.6,0.9,0.8,2,0.8,3.3c0,1.3-0.3,2.3-0.8,3.2
		c-0.5,0.8-1.1,1.5-1.8,1.9c-0.7,0.4-1.4,0.7-2,0.7l5.1,9h-3l-4.8-8.8h-3.3v8.8h-2.7V351z M749.5,360.9h3.6c1.2,0,2.3-0.3,3.1-0.9
		s1.2-1.6,1.2-3s-0.4-2.3-1.2-2.9c-0.8-0.6-1.8-0.9-3.1-0.9h-3.6V360.9z"/>
	<path fill="#727272" d="M762.6,351h2.7v20.7h-2.7V351z"/>
	<path fill="#727272" d="M767.8,351h4.9c2.2,0,4,0.4,5.5,1.3c1.4,0.9,2.5,2.1,3.2,3.7s1,3.3,1,5.4c0,2-0.3,3.8-1,5.4
		s-1.8,2.8-3.2,3.7c-1.4,0.9-3.2,1.3-5.5,1.3h-4.9V351z M770.4,353.4v15.8h2c1.6,0,3-0.3,4-1c1-0.7,1.8-1.6,2.3-2.8
		c0.5-1.2,0.8-2.5,0.8-4.1c0-1.5-0.2-2.9-0.7-4.1c-0.5-1.2-1.3-2.1-2.3-2.8c-1-0.7-2.4-1-4-1H770.4z"/>
	<path fill="#727272" d="M792.9,360.4h10.5v1.1c0,1.4-0.3,2.8-0.8,4.1c-0.5,1.3-1.2,2.4-2.1,3.4s-2,1.7-3.2,2.3
		c-1.2,0.5-2.6,0.8-4.1,0.8c-1.5,0-2.9-0.3-4.1-0.8c-1.3-0.6-2.3-1.3-3.3-2.3c-0.9-1-1.6-2.1-2.1-3.4c-0.5-1.3-0.8-2.7-0.8-4.2
		c0-1.5,0.3-2.8,0.8-4.1c0.5-1.3,1.2-2.4,2.1-3.4c0.9-1,2-1.8,3.3-2.3c1.3-0.6,2.6-0.8,4.1-0.8c1,0,2,0.1,2.8,0.3
		c0.9,0.2,1.6,0.5,2.3,0.9s1.3,0.9,1.8,1.4c0.5,0.5,1,1,1.4,1.6l-2.4,1.3c-0.6-0.9-1.4-1.6-2.4-2.2c-1-0.6-2.1-0.8-3.5-0.8
		c-1.1,0-2.1,0.2-3,0.6c-0.9,0.4-1.7,1-2.4,1.8c-0.7,0.8-1.2,1.6-1.6,2.6c-0.4,1-0.5,2-0.5,3.1c0,1.1,0.2,2.2,0.5,3.2
		c0.4,1,0.9,1.9,1.6,2.6s1.5,1.4,2.4,1.8c0.9,0.4,1.9,0.6,3,0.6c1,0,2-0.2,2.8-0.5c0.9-0.4,1.6-0.8,2.2-1.5c0.6-0.6,1.1-1.4,1.5-2.2
		c0.4-0.8,0.6-1.7,0.6-2.7h-7.5V360.4z"/>
	<path fill="#727272" d="M804.6,351h12.3v2.4h-9.6v6.7h9.4v2.4h-9.4v6.8h9.6v2.4h-12.3V351z"/>
</g>
<g>
	<path fill="#727272" d="M560.8,352.1h4.7c1,0,2,0.2,2.8,0.5c0.8,0.3,1.5,0.9,2,1.6c0.5,0.7,0.7,1.7,0.7,2.8c0,1.1-0.2,2.1-0.7,2.9
		c-0.5,0.8-1.2,1.3-2,1.7c-0.8,0.4-1.8,0.6-2.8,0.6h-2.6v6.6h-2.2V352.1z M562.9,360.3h2c0.7,0,1.4-0.1,1.9-0.3c0.6-0.2,1-0.6,1.4-1
		c0.3-0.5,0.5-1.1,0.5-1.9c0-0.8-0.2-1.4-0.5-1.9c-0.3-0.5-0.8-0.8-1.4-1s-1.2-0.3-1.9-0.3h-2V360.3z"/>
	<path fill="#727272" d="M575.9,369c-1.1,0-2-0.2-2.8-0.7c-0.8-0.5-1.5-1.1-1.9-1.9c-0.5-0.8-0.7-1.7-0.7-2.8c0-1,0.2-2,0.7-2.8
		c0.5-0.8,1.1-1.5,1.9-2c0.8-0.5,1.8-0.7,2.8-0.7c1.1,0,2,0.2,2.8,0.7c0.8,0.5,1.5,1.1,1.9,2c0.5,0.8,0.7,1.8,0.7,2.8
		c0,1-0.2,2-0.7,2.8c-0.5,0.8-1.1,1.5-1.9,1.9C577.9,368.8,577,369,575.9,369z M575.9,367.1c0.7,0,1.3-0.2,1.8-0.5
		c0.5-0.3,0.9-0.7,1.2-1.3c0.3-0.5,0.4-1.2,0.4-1.8c0-0.7-0.1-1.3-0.4-1.8c-0.3-0.5-0.7-1-1.2-1.3c-0.5-0.3-1.1-0.5-1.8-0.5
		c-0.7,0-1.3,0.2-1.8,0.5c-0.5,0.3-0.9,0.8-1.2,1.3c-0.3,0.5-0.4,1.2-0.4,1.8c0,0.7,0.1,1.3,0.4,1.8c0.3,0.5,0.7,1,1.2,1.3
		C574.7,367,575.2,367.1,575.9,367.1z"/>
	<path fill="#727272" d="M589.1,361l-2.6,7.7h-2.3l-2.8-10.3h2.3l1.9,7.9l2.6-7.7h1.8l2.6,7.7l1.9-7.9h2.3l-2.8,10.3h-2.3L589.1,361
		z"/>
	<path fill="#727272" d="M598.8,364c0,0.6,0.1,1.2,0.4,1.7c0.3,0.5,0.6,0.9,1.2,1.2s1.2,0.5,1.9,0.5c0.6,0,1.2-0.1,1.6-0.3
		c0.4-0.2,0.8-0.4,1.1-0.7c0.3-0.3,0.5-0.5,0.6-0.7l1.1,1.3c-0.3,0.4-0.6,0.8-1,1.1s-0.9,0.5-1.5,0.7s-1.3,0.2-2.1,0.2
		c-1.1,0-2.1-0.2-2.9-0.7c-0.8-0.5-1.4-1.1-1.9-2c-0.4-0.8-0.7-1.8-0.7-2.9c0-1,0.2-1.9,0.6-2.7c0.4-0.8,1-1.4,1.8-1.9
		s1.7-0.7,2.8-0.7c1,0,1.9,0.2,2.6,0.6c0.8,0.4,1.3,1,1.7,1.8s0.6,1.7,0.6,2.8c0,0.1,0,0.2,0,0.4c0,0.2,0,0.3,0,0.4H598.8z
		 M604.9,362.3c0-0.3-0.1-0.7-0.3-1.1s-0.5-0.8-0.9-1.1s-1-0.4-1.7-0.4c-0.7,0-1.3,0.1-1.8,0.4c-0.4,0.3-0.8,0.6-1,1
		c-0.2,0.4-0.3,0.8-0.4,1.2H604.9z"/>
	<path fill="#727272" d="M610,368.7h-2.2v-10.3h2.2v1.8H610c0-0.2,0.2-0.5,0.5-0.8c0.3-0.3,0.6-0.6,1.1-0.9s1-0.4,1.7-0.4
		c0.5,0,0.9,0.1,1.3,0.2c0.4,0.1,0.6,0.3,0.8,0.4l-0.9,1.8c-0.1-0.1-0.3-0.2-0.6-0.4c-0.3-0.1-0.7-0.2-1.1-0.2c-0.6,0-1,0.2-1.4,0.5
		c-0.4,0.3-0.7,0.8-0.9,1.2c-0.2,0.5-0.3,0.9-0.3,1.3V368.7z"/>
	<path fill="#727272" d="M616.3,364c0,0.6,0.1,1.2,0.4,1.7c0.3,0.5,0.6,0.9,1.2,1.2s1.2,0.5,1.9,0.5c0.6,0,1.2-0.1,1.6-0.3
		c0.4-0.2,0.8-0.4,1.1-0.7c0.3-0.3,0.5-0.5,0.6-0.7l1.1,1.3c-0.3,0.4-0.6,0.8-1,1.1s-0.9,0.5-1.5,0.7s-1.3,0.2-2.1,0.2
		c-1.1,0-2.1-0.2-2.9-0.7c-0.8-0.5-1.4-1.1-1.9-2c-0.4-0.8-0.7-1.8-0.7-2.9c0-1,0.2-1.9,0.6-2.7c0.4-0.8,1-1.4,1.8-1.9
		s1.7-0.7,2.8-0.7c1,0,1.9,0.2,2.6,0.6c0.8,0.4,1.3,1,1.7,1.8s0.6,1.7,0.6,2.8c0,0.1,0,0.2,0,0.4c0,0.2,0,0.3,0,0.4H616.3z
		 M622.4,362.3c0-0.3-0.1-0.7-0.3-1.1s-0.5-0.8-0.9-1.1s-1-0.4-1.7-0.4c-0.7,0-1.3,0.1-1.8,0.4c-0.4,0.3-0.8,0.6-1,1
		c-0.2,0.4-0.3,0.8-0.4,1.2H622.4z"/>
	<path fill="#727272" d="M630,369c-0.9,0-1.8-0.2-2.5-0.7c-0.8-0.5-1.3-1.1-1.8-1.9c-0.4-0.8-0.6-1.8-0.6-2.9s0.2-2.1,0.6-2.9
		c0.4-0.8,1-1.5,1.8-1.9c0.8-0.5,1.6-0.7,2.5-0.7c0.8,0,1.4,0.1,2,0.4c0.6,0.3,1,0.6,1.4,0.9s0.5,0.7,0.6,0.9v-8.9h2.2v17.3H634v-2
		c-0.1,0.3-0.3,0.6-0.7,1c-0.4,0.4-0.8,0.7-1.4,0.9S630.7,369,630,369z M630.5,367.2c0.6,0,1.2-0.2,1.7-0.5c0.5-0.3,1-0.7,1.3-1.3
		c0.3-0.5,0.5-1.2,0.5-1.9s-0.2-1.4-0.5-1.9c-0.3-0.5-0.7-1-1.3-1.3c-0.5-0.3-1.1-0.5-1.7-0.5c-0.6,0-1.1,0.2-1.6,0.5
		s-0.9,0.7-1.2,1.3c-0.3,0.5-0.5,1.2-0.5,1.9s0.2,1.4,0.5,1.9c0.3,0.5,0.7,1,1.2,1.3S629.9,367.2,630.5,367.2z"/>
	<path fill="#727272" d="M641.8,368.7v-17.3h2.2v8.9c0.1-0.3,0.2-0.6,0.6-0.9s0.8-0.7,1.4-0.9c0.6-0.3,1.2-0.4,2-0.4
		c1,0,1.8,0.2,2.6,0.7s1.3,1.1,1.8,1.9c0.4,0.8,0.6,1.8,0.6,2.9s-0.2,2.1-0.6,2.9s-1,1.5-1.8,1.9c-0.7,0.5-1.6,0.7-2.6,0.7
		c-0.7,0-1.4-0.1-1.9-0.4s-1-0.6-1.4-0.9s-0.6-0.7-0.7-1v2H641.8z M650.8,363.6c0-0.7-0.2-1.4-0.5-1.9s-0.7-1-1.2-1.3
		s-1-0.5-1.6-0.5c-0.6,0-1.2,0.2-1.8,0.5c-0.5,0.3-0.9,0.7-1.3,1.3c-0.3,0.5-0.5,1.2-0.5,1.9s0.2,1.4,0.5,1.9c0.3,0.5,0.7,1,1.3,1.3
		c0.5,0.3,1.1,0.5,1.8,0.5c0.6,0,1.1-0.1,1.6-0.4s0.9-0.7,1.2-1.3C650.7,364.9,650.8,364.3,650.8,363.6z"/>
	<path fill="#727272" d="M657.8,366.7l3.5-8.3h2.2l-7,15.6h-2.2l2.3-5.2l-4.3-10.3h2.2L657.8,366.7z"/>
</g>
<g>
	<g>
		<g>
			<path fill="#E04603" d="M416.7,134.7c0-10.5,1.8-20.3,5.4-29.3c3.6-9.1,8.6-17,15.1-23.8c6.5-6.8,14.1-12,22.8-15.8
				c8.7-3.8,18.1-5.7,28.3-5.7c10.3,0,19.7,1.9,28.4,5.7c8.7,3.8,16.3,9.1,22.7,15.8c6.4,6.8,11.4,14.7,15,23.8
				c3.6,9.1,5.4,18.8,5.4,29.3c0,10.6-1.8,20.4-5.3,29.4c-3.5,9.1-8.5,17-15,23.8c-6.4,6.8-14,12.1-22.7,15.9
				c-8.7,3.8-18.2,5.7-28.6,5.7c-10.4,0-20-1.9-28.8-5.7c-8.8-3.8-16.4-9.1-22.8-15.9c-6.4-6.8-11.4-14.7-14.9-23.8
				C418.5,155.1,416.7,145.3,416.7,134.7z M436.1,134.7c0,10.7,2.2,20.4,6.7,28.9c4.5,8.6,10.6,15.4,18.5,20.5
				c7.9,5.1,16.9,7.6,27.1,7.6c10.3,0,19.3-2.5,27.1-7.6c7.8-5.1,14-11.9,18.4-20.5c4.4-8.6,6.7-18.2,6.7-28.9s-2.2-20.3-6.7-28.9
				c-4.4-8.6-10.6-15.3-18.4-20.4c-7.8-5-16.9-7.5-27.1-7.5c-10.2,0-19.2,2.5-27.1,7.5c-7.9,5-14,11.8-18.5,20.4
				C438.3,114.4,436.1,124,436.1,134.7z M528.5,214.2c4.2,0,7.8-0.5,10.9-1.4c3.1-0.9,5.6-1.9,7.4-2.9c1.8-1,2.8-1.7,3.1-2l7.8,13.3
				c-1.8,2.1-5.2,4.4-10,6.9c-4.8,2.5-11.3,3.8-19.4,3.8c-5.1,0-9.4-0.5-13.1-1.6c-3.6-1.1-7-2.4-10.1-3.9c-3.1-1.5-6.4-2.8-9.8-3.9
				c-3.4-1.1-7.5-1.7-12.1-1.7c-4.4,0-8.4,0.8-11.9,2.3c-3.5,1.6-6.3,3.1-8.4,4.8c-2.1,1.6-3.2,2.5-3.4,2.8l-9.2-10.5
				c4.7-4.4,9.9-7.9,15.7-10.5c5.8-2.7,12.7-4,20.5-4c5.7,0,10.7,0.7,15.1,2.1c4.4,1.4,8.7,2.8,12.9,4.3
				C518.8,213.5,523.4,214.2,528.5,214.2z"/>
			<path fill="#E04603" d="M586.6,206.9h-18.9v-89.7h18.9v15.5h-0.5c0.4-1.9,1.7-4.3,4-7.1c2.3-2.8,5.5-5.4,9.6-7.6
				c4.1-2.3,9-3.4,14.6-3.4c4.1,0,7.8,0.6,11,1.7c3.2,1.1,5.4,2.2,6.7,3.3l-7.8,15.7c-1-1-2.8-2.1-5.4-3.1c-2.5-1.1-5.7-1.6-9.5-1.6
				c-4.8,0-8.9,1.5-12.3,4.5c-3.4,3-6,6.6-7.8,10.8c-1.8,4.2-2.7,8.1-2.7,11.6V206.9z"/>
		</g>
		<path fill="#E04603" d="M379.2,312.8c7.2,0,13.4-1,18.6-3c5.3-2,9-3.9,11.2-5.8l6.5,12.8c-2.6,2.3-7.2,4.7-13.7,7.1
			c-6.5,2.4-14.3,3.6-23.4,3.6c-8.5,0-16.4-1.5-23.7-4.5c-7.3-3-13.6-7.2-19.1-12.7c-5.4-5.4-9.7-11.7-12.7-18.9
			c-3.1-7.2-4.6-15-4.6-23.4c0-8.4,1.5-16.2,4.5-23.5c3-7.3,7.3-13.6,12.7-19.1c5.4-5.4,11.8-9.7,19.1-12.7
			c7.3-3.1,15.2-4.6,23.7-4.6c9.1,0,16.9,1.2,23.4,3.6c6.5,2.4,11,4.7,13.7,7.1l-6.5,12.8c-2.2-1.9-6-3.9-11.2-5.8
			c-5.3-1.9-11.5-2.9-18.6-2.9c-6.5,0-12.5,1.1-17.9,3.3c-5.4,2.2-10.1,5.3-14.1,9.4c-4,4-7.1,8.8-9.3,14.3
			c-2.2,5.5-3.3,11.4-3.3,17.9c0,6.5,1.1,12.5,3.3,18c2.2,5.5,5.3,10.3,9.3,14.3c4,4,8.7,7.2,14.1,9.4
			C366.7,311.7,372.7,312.8,379.2,312.8z"/>
		<path fill="#E04603" d="M480.2,325.4v-14c-0.5,1.5-1.8,3.5-4.1,6c-2.2,2.6-5.3,4.9-9.2,6.9c-3.9,2.1-8.4,3.1-13.7,3.1
			c-6.6,0-12.6-1.6-18-4.7c-5.4-3.1-9.7-7.6-12.8-13.2c-3.2-5.7-4.8-12.3-4.8-19.9c0-7.6,1.6-14.3,4.8-19.9
			c3.2-5.7,7.4-10.1,12.8-13.3c5.4-3.2,11.4-4.8,18-4.8c5.2,0,9.7,0.9,13.5,2.8c3.8,1.9,6.9,4,9.2,6.5c2.3,2.4,3.7,4.5,4.1,6.3
			v-13.4h15v71.7H480.2z M432.7,289.6c0,5.2,1.1,9.7,3.4,13.4c2.3,3.8,5.2,6.7,8.9,8.8c3.6,2.1,7.5,3.1,11.7,3.1
			c4.4,0,8.4-1,11.9-3.1c3.5-2.1,6.3-5,8.3-8.9c2-3.8,3.1-8.3,3.1-13.3s-1-9.5-3.1-13.3c-2-3.8-4.8-6.8-8.3-8.9
			c-3.5-2.1-7.5-3.2-11.9-3.2c-4.1,0-8,1-11.7,3.1c-3.6,2.1-6.6,5-8.9,8.8C433.9,280,432.7,284.4,432.7,289.6z"/>
		<path fill="#E04603" d="M520.3,371.9h-15.1V253.7h15.4v13.4c0.5-1.8,2-3.9,4.4-6.4c2.4-2.4,5.6-4.6,9.6-6.4
			c4-1.8,8.7-2.8,13.9-2.8c6.6,0,12.5,1.6,17.7,4.8c5.2,3.2,9.2,7.6,12.1,13.3c2.9,5.7,4.4,12.3,4.4,19.9c0,7.6-1.5,14.3-4.5,19.9
			c-3,5.7-7.1,10.1-12.4,13.2c-5.2,3.1-11.2,4.7-17.9,4.7c-5.4,0-10.1-1-14.2-3.1c-4-2-7.2-4.3-9.5-6.9c-2.3-2.6-3.6-4.6-4-6.1
			V371.9z M567.7,289.6c0-5.2-1.1-9.7-3.2-13.4c-2.1-3.8-4.9-6.7-8.4-8.8s-7.3-3.1-11.3-3.1c-4.5,0-8.6,1.1-12.2,3.2
			c-3.7,2.1-6.6,5.1-8.7,8.9c-2.2,3.8-3.2,8.3-3.2,13.3s1.1,9.5,3.2,13.3c2.2,3.8,5.1,6.8,8.7,8.9c3.7,2.1,7.7,3.1,12.2,3.1
			c4.1,0,7.9-1,11.3-3.1c3.5-2.1,6.3-5,8.4-8.8C566.6,299.3,567.7,294.8,567.7,289.6z"/>
		<path fill="#E04603" d="M581.9,253.7H596v-29.4h15.1v29.4h18.4v13h-18.4v35.4c0,4.2,0.7,7.3,2.2,9.3c1.5,2,3.5,3,6,3
			c2.2,0,3.9-0.4,5.2-1.2c1.2-0.8,1.9-1.4,2.2-1.7l6,11.2c-0.3,0.3-1.3,0.8-2.8,1.7c-1.5,0.8-3.5,1.5-5.8,2.2c-2.4,0.6-5.2,1-8.4,1
			c-5.6,0-10.3-1.7-14-5.1c-3.8-3.4-5.6-8.8-5.6-16.2v-39.5h-14.1V253.7z"/>
		<path fill="#E04603" d="M693,325.4v-14c-0.5,1.5-1.8,3.5-4.1,6c-2.2,2.6-5.3,4.9-9.2,6.9c-3.9,2.1-8.4,3.1-13.7,3.1
			c-6.6,0-12.6-1.6-18-4.7c-5.4-3.1-9.7-7.6-12.8-13.2c-3.2-5.7-4.8-12.3-4.8-19.9c0-7.6,1.6-14.3,4.8-19.9
			c3.2-5.7,7.4-10.1,12.8-13.3c5.4-3.2,11.4-4.8,18-4.8c5.2,0,9.7,0.9,13.5,2.8c3.8,1.9,6.9,4,9.2,6.5c2.3,2.4,3.7,4.5,4.1,6.3
			v-13.4h15v71.7H693z M645.5,289.6c0,5.2,1.1,9.7,3.4,13.4c2.3,3.8,5.2,6.7,8.9,8.8c3.6,2.1,7.5,3.1,11.7,3.1c4.4,0,8.4-1,11.9-3.1
			c3.5-2.1,6.3-5,8.3-8.9c2-3.8,3.1-8.3,3.1-13.3s-1-9.5-3.1-13.3c-2-3.8-4.8-6.8-8.3-8.9c-3.5-2.1-7.5-3.2-11.9-3.2
			c-4.1,0-8,1-11.7,3.1c-3.6,2.1-6.6,5-8.9,8.8C646.6,280,645.5,284.4,645.5,289.6z"/>
		<rect x="719.3" y="253.7" fill="#E04603" width="15.2" height="71.7"/>
		<path fill="#E04603" d="M787.4,251.7c4.7,0,9.3,1,13.8,3c4.5,2,8.1,5.1,11,9.4c2.9,4.3,4.3,9.9,4.3,16.7v44.7h-15.4v-41.7
			c0-7.1-1.7-12.3-5-15.5c-3.3-3.2-7.6-4.8-12.8-4.8c-3.4,0-6.7,1-9.9,2.9c-3.2,2-5.8,4.6-7.8,8c-2,3.4-3.1,7.3-3.1,11.6v39.5h-15.2
			v-71.7h15.2v12.7c0.5-2,1.9-4.1,4.3-6.5c2.3-2.3,5.3-4.3,8.9-5.9C779.3,252.5,783.2,251.7,787.4,251.7z"/>
		<path fill="#E04603" d="M432.9,239.1c-8.4,0-18.3-2.7-28.3-10.6l8.9-11.2c17.2,13.6,30.6,6.5,32.1,5.5l9.1,10.7
			C450.6,236.5,442.2,239.1,432.9,239.1z"/>
		<rect x="719.5" y="224.3" fill="#E04603" width="15" height="15"/>
	</g>
</g>
</svg>
